<?xml version="1.0" encoding="UTF-8" standalone="no"?>
<!-- Created with Inkscape (http://www.inkscape.org/) -->

<svg
   width="82.255539mm"
   height="118.60307mm"
   viewBox="0 0 82.255539 118.60307"
   version="1.1"
   id="svg1"
   xml:space="preserve"
   inkscape:version="1.4.4 (dcaf3e7, 2026-05-05)"
   sodipodi:docname="Navitec.svg"
   xmlns:inkscape="http://www.inkscape.org/namespaces/inkscape"
   xmlns:sodipodi="http://sodipodi.sourceforge.net/DTD/sodipodi-0.dtd"
   xmlns="http://www.w3.org/2000/svg"
   xmlns:svg="http://www.w3.org/2000/svg"><sodipodi:namedview
     id="namedview1"
     pagecolor="#ffffff"
     bordercolor="#000000"
     borderopacity="0.25"
     inkscape:showpageshadow="2"
     inkscape:pageopacity="0.0"
     inkscape:pagecheckerboard="0"
     inkscape:deskcolor="#d1d1d1"
     inkscape:document-units="mm"
     inkscape:lockguides="false"
     inkscape:zoom="1"
     inkscape:cx="105.5"
     inkscape:cy="228.5"
     inkscape:window-width="1920"
     inkscape:window-height="991"
     inkscape:window-x="-9"
     inkscape:window-y="-9"
     inkscape:window-maximized="1"
     inkscape:current-layer="svg1" /><defs
     id="defs1" /><path
     id="path48"
     style="opacity:1;fill:#000000;fill-opacity:1;stroke:#000000;stroke-width:0.1"
     inkscape:label="1"
     d="M 40.860606,0.06193438 A 55,55 0 0 1 35.70847,3.4033324 55,55 0 0 1 8.665676,10.65922 l 7.198527,5.719548 a 55,55 0 0 0 25.102343,-8.9865316 55,55 0 0 0 24.21144,8.8991976 55,55 0 0 0 0.59841,0.06563 l 7.80159,-5.697843 a 55,55 0 0 1 -6.60063,-0.366387 55,55 0 0 1 -20.83541,-6.8156046 55,55 0 0 1 -5.28134,-3.41529502 z m 41.24141,13.19195962 -8.83822,7.138065 0.0357,41.858434 0.004,4.25658 c 0.0807,2.01035 0.0458,3.92067 -0.10284,5.74332 h -5.1e-4 -0.015 l -12.37082,-9.99112 -3.74757,-3.02669 v 5.2e-4 l -15.94218,-12.8757 -0.005,-0.004 -19.76365,-15.961824 -12.362553,-9.984404 -8.83977099,-7.139099 -0.01188,13.03538 -0.0078,8.36228 -0.0248,27.636557 -0.0052,5.40277 c -0.0687,1.58341 -0.07152,3.11456 -0.0098,4.59714 0.0961,2.30281 0.348617,4.48908 0.756027,6.57428 l 8.14782299,-6.58048 -8.14782299,6.58099 c 0.71592999,3.66403 1.90968699,7.01605 3.56825699,10.14099 1.90461,3.58842 4.423208,6.87743 7.537008,9.99473 v 5.2e-4 h 0.001 c 2.693591,2.696487 5.832998,5.264307 9.406145,7.787117 v 5.2e-4 c 5.55382,3.92123 12.15604,7.73303 19.762617,11.74657 0.002,-9.2e-4 0.003,-0.002 0.005,-0.003 5.93096,-3.12954 11.25152,-6.13663 15.94063,-9.16895 5.2103,-3.36936 9.64079,-6.77015 13.26327,-10.404017 1.43514,-1.43965 2.74364,-2.91556 3.92328,-4.44107 l -6.8802,-5.55677 -0.0444,-0.0367 c -0.008,0.0118 -0.0164,0.0247 -0.0248,0.0367 l -10.23865,0.007 -15.94115,0.0109 5.2e-4,9.99991 15.94115,-0.0109 v 0.32815 c -4.44616,3.444147 -9.77205,6.779147 -15.94011,10.296527 -5.7e-4,3.3e-4 -0.002,9.5e-4 -0.003,0.002 v 5.2e-4 l -5.2e-4,5.1e-4 C 34.77355,105.98567 29.314147,102.55682 24.789624,99.003633 h -0.0016 c -1.209693,-0.95002 -2.351931,-1.90908 -3.427181,-2.88303 -2.498565,-2.26319 -4.632504,-4.60686 -6.390824,-7.10861 -3.37969,-4.80873 -5.373154,-10.19981 -5.910234,-16.71525 l 12.298991,-0.009 -5.16e-4,-9.97406 0.03204,-0.0258 h -0.03204 l -12.400794,0.009 0.01757,-20.48971 0.0067,-8.362797 12.374955,9.994227 11.686109,9.43818 8.082196,6.52777 3.55017,2.86752 12.37082,9.99113 0.0212,0.0171 13.49426,10.89804 v 5.2e-4 l 7.16803,5.78931 0.091,0.0729 c 0.0129,-0.0243 0.0264,-0.0485 0.0393,-0.0729 1.644,-3.10782 2.82775,-6.4404 3.54087,-10.08052 0.41248,-2.10557 0.66742,-4.31449 0.76223,-6.64197 h 5.1e-4 c 0.0598,-1.46712 0.0561,-2.98131 -0.0119,-4.54701 l -0.005,-5.4529 h -5.2e-4 z" /></svg>
